<svg xmlns="http://www.w3.org/2000/svg" width="81" height="63" viewBox="0 0.445 20.25 15.75"><path d="M9 .445c-.622 0-1.125.503-1.125 1.125v3.583a.354.354 0 0 1-.355.355.354.354 0 0 1-.31-.18l-1.687-2.95a7.873 7.873 0 0 0-4.398 7.067v2.25h18V9.361a7.875 7.875 0 0 0-4.398-6.982l-1.688 2.95a.354.354 0 0 1-.309.179.354.354 0 0 1-.355-.355V1.57c0-.622-.503-1.125-1.125-1.125H9ZM.584 12.82a.582.582 0 0 0-.584.584c0 .165.07.323.204.418.763.56 3.726 2.373 9.921 2.373 6.195 0 9.158-1.814 9.921-2.373a.511.511 0 0 0 .204-.418.582.582 0 0 0-.584-.584H.584Z" fill="#8000cf" fill-rule="evenodd" data-name="Icon fa-solid-helmet-safety"/></svg>